<svg xmlns="http://www.w3.org/2000/svg" width="220" height="173" viewBox="0 0 220 173" fill="none">
<g clip-path="url(#clip0_1_21664)">
<path d="M135.063 73.4361V99.4364C135.063 100.811 133.944 101.93 132.569 101.93H64.2552C62.8802 101.93 61.7616 100.811 61.7616 99.4364V31.1069C61.7616 29.7319 62.8802 28.6133 64.2552 28.6133H90.24V70.9503C90.24 72.3252 91.3586 73.4439 92.7336 73.4439H135.071L135.063 73.4361Z" fill="#4C00FF"/>
<path d="M163.557 36.7756C163.557 58.6588 150.809 73.3952 135.063 73.4418V45.8956C135.063 45.1032 134.744 44.3419 134.185 43.7826L119.899 29.4968C119.34 28.9375 118.579 28.619 117.786 28.619H90.2401V2.62642C90.2401 1.25144 91.3587 0.132812 92.7337 0.132812H131.28C149.535 0.132812 163.557 14.8536 163.557 36.7756Z" fill="#FF5252"/>
<path d="M134.189 43.7847C134.748 44.344 135.067 45.1053 135.067 45.8976V73.4439H92.7298C91.3548 73.4439 90.2362 72.3252 90.2362 70.9502V28.6133H117.782C118.575 28.6133 119.336 28.9318 119.895 29.4911L134.189 43.7847Z" fill="black"/>
</g>
<path d="M212.074 140.056V157.609H205.635V141.223C205.635 137.227 203.914 135.002 200.578 135.002C197.242 135.002 195.023 137.336 194.41 141.276C194.241 142.219 194.189 143.66 194.189 146.719V157.605H187.75V129.724H193.457C193.47 129.974 193.608 132.467 193.618 132.615C193.628 132.816 193.862 132.918 194.021 132.793C196.394 130.914 198.999 129.17 202.632 129.17C208.57 129.17 212.074 133.225 212.074 140.056Z" fill="black"/>
<path d="M177.331 129.735L177.12 132.916C177.107 133.121 176.863 133.223 176.711 133.088C175.936 132.343 173.045 129.178 168.162 129.178C161.163 129.178 156 135.227 155.997 143.44H155.99C155.99 151.768 161.1 157.824 168.159 157.824C172.863 157.824 175.752 154.775 176.279 154.092C176.431 153.908 176.724 154.016 176.718 154.254C176.658 155.104 176.53 157.231 175.827 159.037C174.941 161.322 172.929 163.439 168.881 163.439C165.551 163.439 162.61 162.163 159.828 159.443L156.498 164.055C159.551 167.504 164.381 169.449 169.606 169.449C178.046 169.449 183.104 163.67 183.104 154.227V129.735H177.331ZM169.557 152.002C165.393 152.002 162.445 148.395 162.445 143.45C162.445 138.505 165.393 135.003 169.557 135.003C173.721 135.003 176.665 138.501 176.665 143.45C176.665 148.398 173.717 152.002 169.557 152.002Z" fill="black"/>
<path d="M142.552 149.338C142.552 154.62 138.104 158.174 131.606 158.174C126.496 158.174 121.953 156.179 119.22 153.35L119.227 153.344H119.217L121.337 148.296C123.384 150.146 126.691 152.793 131.392 152.793C134.672 152.793 136.558 151.349 136.558 149.513C136.558 147.4 133.944 146.842 130.835 146.229C126.391 145.29 120.506 143.786 120.506 137.73C120.506 132.672 124.617 129.178 130.67 129.178C135.332 129.178 139.337 130.955 142.107 133.289L138.935 137.733C136.268 135.623 133.439 134.565 130.657 134.565C127.874 134.565 126.496 135.735 126.496 137.4C126.496 139.734 129.5 140.348 131.722 140.789C137.277 141.897 142.552 143.569 142.552 149.338Z" fill="black"/>
<path d="M48.2811 129.17C40.3983 129.17 34.7343 135.286 34.7343 143.67C34.7343 152.053 40.395 158.169 48.2811 158.169C56.1672 158.169 61.8345 152.063 61.8345 143.67C61.8345 135.276 56.1639 129.17 48.2811 129.17ZM48.2811 152.337C44.1204 152.337 41.173 148.783 41.173 143.67C41.173 138.556 44.0611 135.002 48.2811 135.002C52.5011 135.002 55.3891 138.559 55.3891 143.67C55.3891 148.78 52.445 152.337 48.2811 152.337Z" fill="black"/>
<path d="M64.1053 143.67C64.1053 135.391 69.7694 129.17 77.3291 129.17C83.3294 129.17 87.7175 132.173 89.7682 137.837L84.0481 140.003C82.4953 136.505 80.438 135.005 77.3258 135.005C73.4388 135.005 70.5507 138.671 70.5507 143.673C70.5507 148.674 73.4355 152.34 77.3258 152.34C80.438 152.34 82.4887 150.837 84.0481 147.342L89.7682 149.508C87.7175 155.172 83.3294 158.176 77.3291 158.176C69.7793 158.176 64.1053 151.955 64.1053 143.676V143.66V143.666V143.67Z" fill="black"/>
<path d="M29.6477 116.783C29.529 116.783 29.4103 116.813 29.3015 116.869L25.0914 119.088C25.009 119.131 24.9596 119.216 24.9596 119.309V132.592C24.9596 132.813 24.7024 132.915 24.5376 132.766C23.9211 132.222 22.4671 130.867 20.4462 129.938C19.401 129.456 17.8515 129.173 16.4602 129.173C9.40824 129.173 4.2948 135.289 4.2948 143.672C4.2948 152.056 9.40494 158.162 16.4602 158.162C20.1725 158.162 22.9452 156.22 24.6398 154.489C24.7552 154.371 24.8178 154.305 24.92 154.193C25.0684 154.035 25.3354 154.127 25.3486 154.344L25.5695 157.605H31.4017V116.951C31.4017 116.859 31.3258 116.783 31.2335 116.783H29.6477ZM17.8515 152.337C13.6315 152.337 10.7435 148.783 10.7435 143.669C10.7435 138.556 13.6909 135.002 17.8515 135.002C22.0122 135.002 24.9596 138.559 24.9596 143.669C24.9596 148.779 22.0748 152.337 17.8515 152.337Z" fill="black"/>
<path d="M150.141 129.818L146.093 131.955C146.01 131.997 145.961 132.083 145.961 132.175V157.607H152.403V129.901C152.403 129.808 152.327 129.732 152.235 129.732H150.487C150.365 129.732 150.25 129.762 150.141 129.818Z" fill="black"/>
<path d="M149.182 125.209C151.329 125.209 153.066 123.471 153.066 121.325C153.066 119.179 151.329 117.441 149.182 117.441C147.036 117.441 145.299 119.179 145.299 121.325C145.299 123.471 147.036 125.209 149.182 125.209Z" fill="black"/>
<path d="M116.882 129.723V144.868C116.882 156.348 110.45 158.168 104.714 158.168C98.977 158.168 92.5448 156.348 92.5448 144.868V129.723H98.977V146.48C98.977 148.118 99.3891 152.339 104.714 152.339C110.038 152.339 110.45 148.118 110.45 146.48V129.723H116.882Z" fill="black"/>
<defs>
<clipPath id="clip0_1_21664">
<rect width="102.088" height="127.323" fill="white" transform="translate(61.494)"/>
</clipPath>
</defs>
</svg>